# xmcd
#
# Track frame offsets: 
#        150
#        9426
#        17493
#        29615
#        39240
#        52460
#        62848
#        78407
#        90001
#        93684
#        98775
#        105511
#        111967
#        128095
#        141227
#        159306
#        176048
#        190338
#        204189
#        214210
#        225332
#        239101
#        254801
#        271406
#        286820
#        299678
#        311961
#
# Disc length: 4361 seconds
#
# Revision: 0
# Processed by: cddbd v1.5.2PL0 Copyright (c) Steve Scherf et al.
# Submitted via: ExactAudioCopy v0.99pb3
#
DISCID=8b11071b
DTITLE=Various Artist - David Marks: The Lost Years [CD2]
DYEAR=2008
DGENRE=Pop/Rock
TTITLE0=Moon, The - Lebanon
TTITLE1=Moon, The - Transporting Machine
TTITLE2=Moon, The - Not To Know
TTITLE3=Moon, The - Life Is A Season
TTITLE4=Moon, The - Softly
TTITLE5=Moon, The - John Automation
TTITLE6=Moon, The - The Good Side
TTITLE7=Crocker, GD, and Dirty Dog Dave - Chilly, Chilly
TTITLE8=Crocker, GD, and Dirty Dog Dave - Prelude
TTITLE9=Abstract Plastic Plasma Dog - The Weary Canoe Suite (Part 1)
TTITLE10=Abstract Plastic Plasma Dog - The Weary Canoe Suite (Part 2)
TTITLE11=Abstract Plastic Plasma Dog - The Weary Canoe Suite (Part 3)
TTITLE12=Abstract Plastic Plasma Dog - Rock and Roll Music
TTITLE13=Marks, David - Still Life In Motion (Silvermine Demo)
TTITLE14=Marks, David - The Rehersal (Silvermine Demo)
TTITLE15=Marks-Clifford Band - Early In The Morning
TTITLE16=Marks, David - Put Yourself In My Place (The Lake House Sessi
TTITLE16=ons Alternate Take)
TTITLE17=Marks, David - You Can't Talk To Me (The Lake House Sessions 
TTITLE17=Alternate Take)
TTITLE18=Marks, David - Hawaii
TTITLE19=Marks, David - Big Wave
TTITLE20=Marks, David - Love and Mercy
TTITLE21=Marks, David - Light Of The Spirit
TTITLE22=Marks, David - Touch
TTITLE23=Marks, David - You and I
TTITLE24=Marks, David - The Round Up
TTITLE25=Marks, David - I Fall Into Grace
TTITLE26=Marks, Davis - Long Promised Road
EXTD=
EXTT0=
EXTT1=
EXTT2=
EXTT3=
EXTT4=
EXTT5=
EXTT6=
EXTT7=
EXTT8=
EXTT9=
EXTT10=
EXTT11=
EXTT12=
EXTT13=
EXTT14=
EXTT15=
EXTT16=
EXTT17=
EXTT18=
EXTT19=
EXTT20=
EXTT21=
EXTT22=
EXTT23=
EXTT24=
EXTT25=
EXTT26=
PLAYORDER=
